<svg xmlns="http://www.w3.org/2000/svg">
    <symbol id="logo" viewBox="0 0 16 16" fill="none">
        <rect id="logo" width="10.7804" height="10.7804" rx="3" transform="matrix(0.866044 0.499967 -0.866044 0.499967 8.04591 3.96677)" fill="#76ADFF"/>
        <rect id="logo" width="10.7804" height="10.7804" rx="3" transform="matrix(0.866044 0.499967 -0.866044 0.499967 8.04591 3.14157)" fill="#3284FF"/>
        <rect id="logo" width="10.7804" height="10.7804" rx="3" transform="matrix(0.866044 0.499967 -0.866044 0.499967 8.04591 2.31631)" fill="#0F6FFF"/>
        <path id="logo" fill-rule="evenodd" clip-rule="evenodd" d="M11.7804 8.04304C11.7804 7.77355 11.4303 7.57143 10.9635 7.57143L7.11227 7.57143L7.11227 6.69558C7.11227 6.42609 6.76216 6.22397 6.29535 6.22397C5.82853 6.22397 5.47842 6.42609 5.47842 6.69558L5.47842 8.04304C5.47842 8.17779 5.53677 8.27885 5.71183 8.37991C5.88688 8.48097 6.06194 8.51466 6.29535 8.51466H10.9635C11.4303 8.51466 11.7804 8.31254 11.7804 8.04304V8.04304Z" fill="white"/>
    </symbol>
</svg>
